<?xml version="1.0" standalone="no"?>
<!DOCTYPE svg PUBLIC "-//W3C//DTD SVG 20010904//EN"
 "http://www.w3.org/TR/2001/REC-SVG-20010904/DTD/svg10.dtd">
<svg version="1.0" xmlns="http://www.w3.org/2000/svg"
 width="892.000000pt" height="618.000000pt" viewBox="0 0 892.000000 618.000000"
 preserveAspectRatio="xMidYMid meet">

<g transform="translate(0.000000,618.000000) scale(0.100000,-0.100000)"
fill="#000000" stroke="none">
<path d="M4574 6100 c-59 -23 -82 -105 -43 -154 12 -15 20 -28 18 -30 -8 -6
-48 -26 -53 -26 -3 0 -6 8 -6 18 0 10 -13 30 -28 45 -70 67 -185 4 -166 -92
10 -47 48 -75 100 -76 44 0 44 0 44 -35 l0 -35 -42 3 c-100 7 -143 -116 -64
-180 35 -29 83 -23 122 16 19 19 34 41 34 50 0 19 4 20 33 4 12 -7 23 -14 25
-14 2 -1 -7 -18 -19 -38 -15 -27 -19 -45 -15 -70 17 -91 142 -113 180 -31 21
44 20 63 -5 104 -11 18 -19 34 -17 36 2 1 13 7 25 14 19 10 23 7 40 -27 22
-45 62 -66 108 -58 94 18 101 154 10 192 -18 7 -42 10 -53 7 -20 -5 -22 -1
-22 31 0 33 2 35 28 30 40 -8 95 32 106 78 11 44 -15 96 -57 116 -50 24 -117
-15 -140 -81 -3 -11 -57 13 -57 25 0 4 4 8 8 8 13 0 42 57 42 84 0 56 -82 108
-136 86z m86 -302 c42 -46 12 -111 -52 -111 -59 0 -89 72 -48 113 27 27 74 26
100 -2z"/>
<path d="M3887 5983 c-4 -3 -7 -19 -7 -35 0 -55 -43 -113 -96 -127 -39 -10
-41 -27 -3 -35 40 -8 99 -66 100 -100 2 -42 3 -46 14 -46 6 0 15 21 22 47 13
52 40 83 83 98 39 13 39 26 -2 39 -41 14 -74 62 -82 121 -7 43 -15 53 -29 38z"/>
<path d="M5231 5907 c-14 -59 -45 -95 -86 -103 -43 -8 -45 -29 -4 -38 44 -9
85 -54 94 -104 4 -23 10 -42 15 -42 5 0 11 19 15 42 9 50 50 95 94 104 42 9
39 28 -7 42 -42 13 -82 69 -82 116 0 43 -26 31 -39 -17z"/>
<path d="M5760 5930 c0 -28 -36 -119 -55 -140 -9 -10 -36 -24 -61 -31 -45 -14
-61 -39 -24 -39 61 0 114 -57 132 -141 12 -61 38 -83 38 -33 0 78 53 157 114
170 17 3 35 8 39 11 15 9 -15 33 -40 33 -43 0 -90 57 -104 128 -8 38 -18 62
-26 62 -7 0 -13 -9 -13 -20z"/>
<path d="M3364 5872 c-6 -4 -14 -16 -18 -28 -20 -65 62 -94 94 -33 22 41 -36
88 -76 61z"/>
<path d="M6462 5809 c-29 -11 -46 -53 -32 -79 33 -61 120 -40 120 28 0 36 -50
65 -88 51z"/>
<path d="M3490 5727 c0 -7 -14 -29 -31 -50 -23 -27 -45 -41 -87 -53 -51 -15
-70 -15 -183 -4 -102 10 -139 11 -190 1 -81 -16 -152 -54 -181 -98 -15 -22
-36 -37 -60 -43 -52 -15 -97 -56 -124 -115 -22 -45 -24 -64 -24 -198 0 -199
17 -276 74 -333 22 -23 47 -43 55 -45 10 -4 6 -23 -19 -87 l-33 -82 -112 -35
c-274 -85 -424 -206 -531 -425 -42 -86 -127 -330 -150 -430 -12 -56 -19 -69
-36 -72 -13 -2 -25 -13 -29 -28 -4 -14 -15 -50 -24 -81 -21 -70 -87 -148 -151
-179 -25 -12 -47 -20 -49 -18 -3 2 0 20 5 39 22 77 7 159 -46 238 -26 41 -27
41 -89 41 -82 0 -203 31 -295 77 -57 28 -96 58 -160 123 -131 131 -180 251
-166 402 18 203 186 414 403 506 119 50 137 52 621 52 321 0 460 -3 475 -11
24 -13 110 -82 140 -111 25 -25 43 -23 116 19 2 1 -12 26 -32 55 -56 81 -67
142 -67 362 l0 190 -55 -54 -55 -54 0 -143 0 -143 -498 0 c-569 0 -561 1 -747
-89 -115 -56 -196 -123 -272 -223 -109 -144 -148 -264 -141 -435 5 -103 8
-118 41 -187 114 -240 326 -401 577 -441 101 -15 116 -23 135 -65 31 -70 9
-154 -58 -220 -20 -19 -33 -38 -31 -42 9 -14 167 -9 229 8 81 21 140 56 201
121 l51 54 21 -59 c29 -77 74 -144 147 -217 79 -80 148 -124 335 -217 l155
-77 -197 -1 -198 0 0 -135 0 -135 80 0 80 0 0 -190 0 -190 88 0 87 0 32 69
c68 145 174 214 360 233 l110 12 -26 36 c-15 20 -38 51 -53 68 l-27 32 -310 0
-311 0 0 24 c0 13 -3 37 -6 55 l-6 31 313 2 313 3 1 39 c2 30 -2 40 -16 43
-30 8 -23 56 21 149 36 77 41 84 58 73 16 -10 20 -29 26 -103 4 -58 2 -92 -4
-94 -5 -2 -10 -25 -10 -52 0 -41 6 -56 39 -98 43 -55 91 -142 91 -168 0 -12 5
-14 18 -9 9 5 41 14 71 22 49 13 61 13 115 -1 109 -30 106 -29 106 -14 0 18
50 107 95 172 37 52 47 112 22 138 -9 9 -13 48 -12 133 0 125 0 123 -49 190
-5 7 -7 19 -4 27 5 13 171 14 1306 12 l1301 -3 63 -43 c93 -64 180 -90 316
-96 l113 -4 -47 68 -47 69 169 5 c174 5 194 10 242 54 47 42 53 67 46 190 -4
63 -4 122 0 131 6 16 8 16 24 3 9 -9 32 -23 50 -32 24 -12 40 -34 63 -82 37
-79 120 -171 187 -207 74 -40 172 -60 259 -51 40 3 73 10 73 13 0 4 -12 18
-26 32 -108 100 -104 269 5 269 84 0 222 39 337 94 101 49 124 65 197 138 93
93 112 118 156 206 105 209 66 458 -104 665 -113 136 -254 224 -439 272 -96
24 -106 25 -437 25 -264 0 -339 3 -340 13 0 6 -1 57 -1 112 1 138 -22 189
-103 226 -38 18 -109 19 -1662 19 l-1621 0 -15 51 c-15 49 -14 52 11 107 31
68 35 173 9 235 -15 36 -37 50 -37 24z m-244 -193 c60 -5 103 -3 124 5 50 17
48 6 -5 -31 -68 -48 -129 -69 -227 -77 -132 -10 -114 16 25 39 102 17 81 31
-51 33 -90 2 -100 0 -146 -27 -29 -17 -53 -39 -59 -56 -9 -25 -16 -28 -53 -28
-56 1 -107 -31 -133 -85 -20 -41 -21 -41 -21 -13 0 63 70 126 139 126 23 0 34
6 40 23 26 66 124 110 226 102 28 -3 91 -8 141 -11z m184 -351 l0 -103 -26 0
c-16 0 -37 -11 -52 -28 -23 -25 -33 -28 -67 -24 -22 3 -53 15 -68 28 -44 37
-119 34 -158 -6 l-30 -29 -54 20 -55 20 35 33 c38 37 40 45 24 91 -17 45 -5
80 31 95 25 10 46 10 119 -4 135 -24 190 -19 251 25 40 29 50 5 50 -118z
m3333 -8 c26 -25 27 -29 27 -130 0 -61 -4 -105 -10 -105 -5 0 -25 7 -44 17
-32 15 -35 20 -38 67 l-3 51 -1588 5 -1588 5 -3 58 -3 57 1611 0 1611 0 28
-25z m-3858 -174 c95 -37 101 -42 115 -79 19 -51 33 -67 76 -87 67 -32 145 11
165 91 8 32 16 44 30 44 15 0 19 -7 19 -34 0 -43 29 -79 80 -100 34 -13 40
-20 40 -45 0 -45 -17 -47 -42 -5 -20 34 -22 35 -35 18 -11 -16 -24 -18 -77
-16 -47 3 -76 -1 -108 -16 -64 -28 -81 -53 -86 -123 -4 -55 -6 -59 -26 -53
-90 26 -176 123 -184 205 -4 46 -6 48 -28 43 -82 -21 -165 114 -109 176 26 29
56 25 170 -19z m287 12 c40 -36 28 -112 -21 -133 -92 -38 -144 100 -56 148 23
13 52 7 77 -15z m292 -2 c48 -53 16 -131 -54 -131 -44 0 -70 26 -70 71 0 42
10 60 43 74 35 14 59 10 81 -14z m2986 -70 c159 -42 271 -98 387 -194 319
-263 361 -628 104 -900 -123 -131 -321 -227 -535 -260 l-81 -13 -27 -69 c-32
-81 -35 -147 -12 -224 8 -29 14 -55 12 -57 -2 -2 -28 8 -57 22 -115 53 -184
136 -220 267 l-18 62 -87 21 c-176 43 -294 101 -392 192 -144 135 -214 279
-214 447 0 154 55 292 167 416 145 162 301 250 528 299 116 26 330 21 445 -9z
m-1440 -20 c-14 -27 -32 -37 -23 -14 6 15 22 32 31 33 1 0 -2 -9 -8 -19z
m-720 -26 c0 -32 -2 -35 -30 -35 -28 0 -30 3 -30 35 0 32 2 35 30 35 28 0 30
-3 30 -35z m673 13 c-23 -11 -29 -28 -16 -41 3 -4 13 -1 22 6 14 11 15 10 1
-8 -25 -35 -53 -65 -61 -65 -11 0 -51 72 -44 79 8 7 96 39 110 40 6 0 0 -5
-12 -11z m-1087 -39 c18 -11 42 -40 55 -65 19 -40 20 -50 10 -85 -10 -32 -23
-47 -67 -75 l-54 -35 0 -79 0 -80 -30 0 -30 0 0 86 c0 84 1 87 34 120 19 19
41 34 49 34 21 0 47 38 47 68 0 13 -13 37 -29 53 -61 61 -156 27 -168 -59 -5
-36 -9 -42 -29 -42 -21 0 -24 5 -24 35 0 48 23 101 52 117 70 40 128 42 184 7z
m1379 -64 c0 -27 -3 -30 -30 -30 -21 0 -31 5 -33 18 -6 33 6 49 35 45 24 -3
28 -8 28 -33z m2369 5 c151 -40 261 -104 361 -211 139 -148 198 -315 161 -458
-45 -174 -166 -316 -349 -406 -100 -50 -190 -72 -327 -83 l-95 -7 -24 -44
c-32 -58 -40 -160 -17 -215 9 -22 14 -41 12 -43 -2 -3 -27 6 -55 18 -86 36
-150 123 -173 232 l-11 53 -56 17 c-93 28 -92 27 -24 101 83 88 162 229 189
336 7 29 10 17 14 -70 l5 -105 139 -3 c86 -2 143 1 150 8 6 6 80 10 190 10
124 0 189 4 205 13 38 19 63 61 68 113 3 27 10 55 16 62 5 7 7 33 3 61 -4 30
-2 52 4 56 14 9 12 51 -4 84 -20 38 -55 51 -141 51 l-74 0 15 35 c34 83 6 182
-60 210 -83 35 -177 -38 -160 -123 5 -25 0 -36 -34 -70 -22 -22 -43 -49 -47
-61 -6 -20 -13 -21 -136 -21 -71 0 -132 -1 -135 -2 -4 -2 -13 21 -20 50 -18
70 -73 185 -118 247 -20 28 -66 80 -103 118 l-67 67 310 0 c280 0 318 -2 388
-20z m-2804 -9 c8 -17 5 -24 -22 -44 -34 -25 -367 -228 -369 -224 0 1 -2 15
-3 30 -2 25 10 35 144 120 246 158 232 151 250 118z m-290 -32 c0 -28 -44 -68
-118 -107 l-61 -32 -3 -88 c-2 -48 -7 -94 -11 -103 -6 -13 1 -20 32 -32 34
-14 40 -20 39 -47 -1 -34 24 -67 62 -82 l25 -10 -27 -14 c-15 -8 -47 -17 -72
-20 -53 -8 -92 12 -154 80 -64 70 -75 99 -69 178 11 126 79 212 192 240 28 7
68 27 90 44 43 35 75 32 75 -7z m-1253 -76 c-9 -9 -19 -14 -23 -11 -10 10 6
28 24 28 15 0 15 -1 -1 -17z m-388 -126 c23 -21 53 -43 67 -49 19 -9 24 -19
24 -51 l0 -39 -32 21 c-57 36 -112 83 -150 129 -36 44 -36 45 -21 78 l16 33
27 -42 c15 -23 46 -59 69 -80z m378 83 c20 0 36 6 42 17 16 29 24 7 9 -24 -18
-38 -70 -44 -104 -12 -32 30 -33 57 -2 35 12 -9 37 -16 55 -16z m1819 -44 c28
-28 34 -41 34 -78 0 -49 -8 -62 -62 -102 -29 -21 -38 -34 -38 -57 0 -22 -5
-29 -20 -29 -17 0 -20 7 -20 45 0 36 5 47 26 62 76 52 89 82 55 124 -13 16
-29 23 -54 23 -45 0 -73 -24 -81 -70 -5 -25 -12 -34 -26 -34 -16 0 -20 7 -20
30 0 72 51 119 129 120 36 0 49 -6 77 -34z m-2336 -110 c28 -30 82 -75 121
-101 38 -25 69 -50 69 -55 0 -4 -25 -31 -56 -59 l-57 -50 -25 19 c-50 40 -121
146 -148 223 -13 37 -12 40 9 58 12 10 25 18 29 19 4 0 30 -24 58 -54z m1858
17 c-2 -30 -10 -42 -38 -61 -38 -26 -93 -27 -97 -2 -3 13 108 98 130 99 5 1 7
-16 5 -36z m3117 13 c20 -30 13 -62 -31 -144 -19 -34 -34 -65 -34 -67 0 -3 52
-5 116 -5 63 0 124 -5 135 -10 26 -14 24 -54 -3 -73 l-23 -16 23 -16 c29 -22
28 -51 -4 -68 -23 -12 -24 -15 -10 -26 21 -18 20 -33 -5 -65 l-20 -26 -170 0
-169 0 0 124 c0 140 0 139 93 258 49 64 50 66 47 110 -3 52 28 66 55 24z
m-5146 -143 c65 -192 190 -419 343 -627 l59 -79 -2 -263 c0 -145 -5 -264 -9
-264 -4 0 -58 33 -118 74 -61 41 -154 96 -207 122 l-95 49 0 203 c0 118 -4
202 -9 202 -5 0 -19 -13 -30 -29 -19 -26 -21 -43 -21 -181 0 -136 -2 -151 -17
-148 -27 5 -35 55 -29 188 5 117 8 128 41 195 58 115 59 198 1 107 -73 -116
-207 -438 -205 -491 0 -10 31 -31 77 -53 91 -44 345 -181 420 -227 l52 -33
-26 -41 c-32 -53 -64 -124 -71 -160 -5 -25 -9 -27 -37 -22 -101 21 -407 167
-506 241 -79 60 -148 138 -177 201 -38 82 -55 203 -42 298 27 207 105 425 204
570 54 80 90 117 160 165 42 29 188 99 206 100 3 0 20 -44 38 -97z m615 -21
c-4 -31 -12 -74 -18 -94 l-11 -38 -57 48 c-31 26 -59 53 -62 60 -4 8 16 33 47
62 51 47 53 48 80 33 27 -14 28 -16 21 -71z m1404 21 c-19 -40 -61 -58 -99
-43 -37 16 -37 30 -1 30 15 0 45 11 67 24 22 14 41 23 43 21 2 -2 -2 -16 -10
-32z m-773 -43 c0 -12 -9 -29 -20 -36 -18 -12 -24 -11 -43 2 -12 8 -22 24 -22
34 0 10 10 26 22 34 19 13 25 14 43 2 11 -7 20 -24 20 -36z m-502 18 c77 -40
213 -188 339 -365 43 -62 84 -115 90 -119 5 -3 17 1 26 10 16 16 15 19 -5 56
-13 21 -23 44 -23 51 0 38 185 253 278 321 l53 39 95 -97 c52 -54 94 -99 94
-101 0 -4 -191 -285 -251 -369 -67 -93 -134 -159 -187 -182 -23 -10 -66 -16
-117 -16 -70 -1 -89 3 -147 31 -37 17 -87 50 -112 73 l-46 43 0 168 c0 93 -3
169 -6 169 -3 0 -19 -9 -35 -21 l-29 -20 0 -400 c0 -241 -4 -399 -9 -399 -5 0
-22 5 -38 11 -15 6 -73 14 -128 17 l-100 7 -3 204 -2 205 54 90 c105 174 154
324 163 499 3 59 10 107 15 107 5 0 19 -5 31 -12z m1701 -94 c21 -21 20 -41
-3 -54 -11 -5 -22 -10 -25 -10 -8 0 -36 31 -36 40 0 5 7 16 16 24 8 9 19 16
24 16 5 0 16 -7 24 -16z m2406 -135 l0 -130 -42 3 -43 3 -2 114 c0 63 1 120 4
128 3 8 21 13 44 13 l39 0 0 -131z m-4269 6 c5 4 9 3 9 -2 0 -17 -54 -183 -60
-183 -3 0 -19 42 -35 93 l-30 93 20 31 20 32 33 -35 c19 -19 38 -32 43 -29z
m-245 30 c16 -24 15 -30 -6 -105 -13 -44 -26 -80 -29 -80 -3 0 -30 45 -59 100
-29 55 -50 100 -46 100 4 0 20 -12 35 -26 l27 -26 23 31 c28 38 34 38 55 6z
m1863 -74 c34 -18 39 -18 53 -4 19 18 93 28 142 19 27 -5 43 -18 71 -57 20
-28 35 -53 33 -54 -2 -2 -33 1 -70 7 -78 14 -131 2 -170 -37 -25 -25 -25 -25
-43 -5 -31 34 -98 54 -161 46 -31 -3 -65 -11 -76 -17 -11 -6 -22 -8 -25 -6
-10 11 62 107 87 116 44 16 118 12 159 -8z m-78 -182 c19 -6 51 -25 72 -41
l38 -29 34 30 c43 38 105 55 170 47 93 -11 121 -23 150 -67 14 -22 25 -43 22
-45 -2 -3 -30 2 -63 11 -115 30 -204 14 -270 -49 l-43 -41 -44 41 c-69 66
-150 79 -279 45 -38 -9 -68 -14 -68 -11 0 4 13 25 30 48 28 39 40 46 125 65
38 9 92 7 126 -4z m-39 -179 c49 -14 98 -61 98 -94 0 -33 -2 -32 -37 3 -56 56
-186 60 -343 11 -36 -11 -66 -20 -68 -20 -2 0 24 44 35 59 2 3 43 15 91 27 97
25 168 29 224 14z m519 -15 c59 -17 91 -32 107 -51 13 -14 21 -28 19 -30 -2
-2 -28 4 -58 14 -85 30 -184 45 -236 37 -55 -8 -121 -39 -130 -60 -7 -20 -33
-19 -33 1 0 28 42 76 84 95 58 26 144 24 247 -6z m1569 -359 c-19 -19 -34 -21
-185 -24 l-165 -3 0 24 c0 38 20 86 40 97 10 6 68 10 129 10 l111 0 0 33 c0
29 5 36 43 54 l42 20 3 -95 c2 -86 1 -98 -18 -116z m-830 37 l29 -63 -1263 0
-1264 0 -4 55 c-1 30 -1 60 0 65 3 7 429 9 1238 8 l1234 -3 30 -62z"/>
<path d="M6265 4770 c-52 -21 -88 -92 -79 -153 5 -28 -1 -38 -48 -87 -30 -31
-63 -75 -74 -98 l-19 -41 -157 -1 -158 0 0 -265 0 -265 175 0 c149 0 175 2
175 15 0 13 32 15 230 15 186 0 238 3 268 15 86 36 132 119 108 193 -6 16 -3
29 9 42 11 12 17 34 16 57 0 21 -1 47 -1 58 -1 11 2 43 6 71 6 49 5 52 -33 92
l-40 42 -106 0 c-59 0 -107 2 -107 3 0 2 8 19 17 38 9 19 19 61 21 94 6 106
-58 186 -148 184 -19 0 -44 -4 -55 -9z m93 -120 c23 -45 9 -104 -47 -191 -28
-44 -51 -82 -51 -85 0 -2 72 -4 159 -4 139 0 162 -2 181 -18 30 -24 21 -64
-16 -81 l-27 -12 33 -27 c26 -22 31 -32 25 -51 -3 -12 -18 -27 -31 -33 -23
-11 -34 -38 -14 -38 5 0 12 -11 16 -24 7 -28 -18 -81 -45 -96 -12 -6 -105 -10
-230 -10 l-211 0 0 175 c0 98 4 175 9 175 5 0 23 24 39 54 17 29 56 80 87 112
57 59 57 59 52 110 -3 32 -1 56 6 63 18 18 50 9 65 -19z m-368 -515 l0 -165
-55 0 -55 0 0 165 0 165 55 0 55 0 0 -165z"/>
<path d="M5895 4655 c-30 -30 -31 -54 -4 -89 40 -50 119 -24 119 40 0 68 -68
97 -115 49z"/>
<path d="M6725 4615 c-50 -49 -18 -125 52 -125 68 0 98 76 48 125 -13 14 -36
25 -50 25 -14 0 -37 -11 -50 -25z"/>
<path d="M5578 4515 c-52 -29 -45 -112 12 -135 33 -14 60 -3 84 32 46 65 -26
141 -96 103z"/>
<path d="M7345 4635 c-29 -28 -31 -45 -10 -84 27 -52 95 -47 125 10 22 40 -23
99 -76 99 -8 0 -26 -11 -39 -25z"/>
<path d="M2465 4375 c-108 -58 -150 -96 -219 -199 -144 -217 -234 -551 -192
-716 44 -169 145 -265 431 -407 147 -73 194 -90 206 -72 13 21 11 49 -3 49
-28 0 -337 163 -401 211 -77 58 -138 138 -163 211 -13 39 -15 73 -11 147 6
118 32 218 93 362 76 179 164 293 278 359 60 34 63 37 43 64 -12 16 -16 15
-62 -9z"/>
<path d="M4034 4239 c-10 -17 13 -36 27 -22 12 12 4 33 -11 33 -5 0 -12 -5
-16 -11z"/>
<path d="M3936 4148 c-75 -85 -85 -104 -62 -126 16 -15 18 -16 26 -1 5 9 35
49 65 89 51 65 63 100 36 100 -5 0 -34 -28 -65 -62z"/>
<path d="M2600 5700 c-14 -26 -5 -57 21 -71 43 -23 92 44 57 79 -20 20 -66 15
-78 -8z"/>
<path d="M6884 5575 c-15 -23 -15 -27 0 -51 23 -34 67 -30 80 8 8 22 6 32 -9
48 -24 27 -51 25 -71 -5z"/>
<path d="M2262 5578 c-28 -28 -2 -88 38 -88 11 0 27 11 36 25 15 23 15 27 0
50 -18 27 -54 33 -74 13z"/>
<path d="M6680 5548 c-40 -43 -11 -108 49 -108 55 0 81 70 41 110 -26 26 -64
25 -90 -2z"/>
<path d="M1364 5503 c-12 -100 -57 -166 -121 -179 -46 -9 -41 -31 7 -39 54 -9
94 -57 111 -129 14 -64 39 -78 39 -22 0 75 49 139 116 152 46 8 43 31 -5 44
-22 6 -51 23 -64 40 -25 29 -47 105 -47 160 0 19 -5 30 -14 30 -10 0 -17 -18
-22 -57z"/>
<path d="M6127 5542 c-10 -10 -17 -28 -17 -39 0 -50 73 -58 99 -11 14 24 14
28 -3 47 -24 26 -58 27 -79 3z"/>
<path d="M7546 5498 c-13 -117 -60 -182 -141 -195 -49 -8 -44 -27 11 -41 27
-7 58 -25 74 -42 33 -36 60 -108 60 -162 0 -30 4 -38 19 -38 15 0 19 10 23 65
3 37 14 78 25 97 24 42 78 78 114 78 22 0 29 5 29 19 0 14 -10 21 -35 25 -41
8 -90 47 -111 89 -9 16 -19 59 -22 96 -5 49 -11 67 -23 69 -13 2 -18 -10 -23
-60z"/>
<path d="M1896 5528 c-3 -13 -7 -45 -10 -72 -10 -82 -58 -141 -128 -155 -45
-9 -45 -26 0 -39 81 -24 129 -90 139 -188 8 -72 29 -71 37 0 13 101 78 186
142 186 17 0 24 6 24 20 0 14 -7 20 -22 20 -33 0 -85 35 -108 72 -11 18 -25
65 -32 105 -12 73 -33 98 -42 51z"/>
<path d="M7122 5334 c-27 -18 -29 -55 -4 -77 24 -22 45 -21 65 1 23 26 21 58
-5 76 -12 9 -25 16 -28 16 -3 0 -16 -7 -28 -16z"/>
<path d="M7988 5229 c-10 -5 -23 -19 -29 -30 -23 -43 44 -92 79 -57 18 18 14
63 -6 81 -21 20 -21 20 -44 6z"/>
<path d="M922 5208 c-21 -21 -15 -75 10 -92 31 -22 51 -20 76 7 26 28 27 45 6
75 -17 25 -71 31 -92 10z"/>
<path d="M600 5128 c-1 -73 -66 -158 -122 -158 -36 0 -23 -25 21 -40 53 -17
86 -59 96 -120 7 -43 35 -57 35 -17 0 12 9 41 20 64 18 40 42 58 103 77 9 3
17 12 17 21 0 8 -8 15 -17 15 -29 0 -81 37 -98 69 -8 17 -18 51 -22 76 -7 54
-33 63 -33 13z"/>
<path d="M8260 5085 c-6 -14 -10 -36 -10 -49 0 -12 -10 -42 -22 -66 -19 -38
-31 -48 -75 -65 -58 -22 -70 -45 -23 -45 63 0 130 -96 130 -187 0 -60 25 -38
37 33 6 36 19 76 28 90 20 31 73 64 103 64 36 0 26 27 -15 40 -66 21 -103 73
-118 162 -7 47 -22 57 -35 23z"/>
<path d="M1959 4740 c-22 -13 -32 -56 -19 -81 31 -56 110 -38 110 26 0 54 -45
82 -91 55z"/>
<path d="M1665 4655 c-30 -29 -31 -49 -5 -75 20 -20 56 -26 76 -12 36 24 34
81 -5 101 -29 16 -39 14 -66 -14z"/>
<path d="M1324 4616 c-28 -28 -34 -41 -34 -78 0 -36 -6 -50 -29 -72 -16 -16
-35 -41 -41 -57 l-12 -29 -119 0 -119 0 0 -215 0 -215 134 0 c79 0 137 4 141
10 4 6 72 10 172 10 126 0 172 4 197 15 40 19 70 73 64 116 -3 18 1 45 9 60 8
16 12 37 8 48 -3 10 -1 39 5 64 20 89 -15 125 -128 129 -68 3 -73 4 -66 23 16
49 16 118 -1 156 -22 49 -53 69 -106 69 -33 0 -47 -6 -75 -34z m111 -90 c8
-35 6 -46 -28 -110 -21 -39 -37 -74 -37 -77 0 -4 51 -7 112 -8 86 -2 117 -6
130 -17 19 -18 14 -42 -16 -66 l-21 -17 23 -16 c29 -21 28 -41 -3 -61 -22 -14
-23 -18 -10 -31 20 -19 19 -25 -6 -57 l-20 -26 -155 0 -154 0 0 134 c0 135 0
135 32 183 17 26 47 64 65 84 25 27 34 44 32 65 -4 55 0 66 24 62 16 -2 24
-13 32 -42z m-277 -363 l-3 -138 -34 -3 c-19 -2 -37 2 -42 9 -8 14 -10 165 -2
227 6 41 6 42 45 42 l39 0 -3 -137z"/>
<path d="M475 4551 c-9 -52 -37 -88 -76 -96 -37 -8 -33 -26 10 -37 35 -9 71
-58 71 -95 0 -40 17 -34 28 10 12 45 44 83 76 89 32 5 28 23 -9 37 -38 14 -56
38 -64 90 -9 49 -28 50 -36 2z"/>
<path d="M1790 4527 c-35 -18 -46 -41 -34 -74 13 -38 54 -52 88 -29 59 38 9
135 -54 103z"/>
<path d="M8510 4450 c-23 -23 -24 -33 -10 -61 12 -22 59 -26 78 -7 18 18 15
59 -5 74 -25 19 -40 17 -63 -6z"/>
<path d="M530 3988 c-14 -72 -46 -110 -108 -129 -51 -15 -54 -34 -7 -43 64
-12 106 -64 118 -146 2 -14 11 -26 20 -28 13 -3 17 4 17 28 0 41 32 103 63
119 13 7 40 16 58 20 39 8 54 41 19 41 -37 0 -96 40 -114 77 -9 19 -19 55 -23
79 -8 63 -28 55 -43 -18z"/>
<path d="M8444 3968 c-10 -46 -30 -74 -64 -88 -31 -13 -40 -30 -16 -30 26 0
66 -41 77 -81 13 -41 29 -52 29 -19 0 37 23 70 62 87 42 19 45 34 7 43 -28 7
-69 63 -69 96 0 35 -17 29 -26 -8z"/>
<path d="M749 3451 c-116 -23 -179 -121 -187 -288 -5 -122 2 -149 74 -264 30
-47 57 -100 60 -116 6 -30 7 -31 43 -21 58 17 146 3 219 -33 43 -21 67 -28 70
-21 2 7 21 12 42 12 49 0 67 19 75 78 8 59 21 92 51 133 31 43 30 61 -6 102
-29 34 -30 37 -30 138 0 85 -4 110 -19 135 -35 58 -121 106 -247 139 -62 16
-87 17 -145 6z"/>
<path d="M8065 3450 c-27 -4 -81 -20 -120 -35 -157 -62 -177 -89 -174 -236 2
-99 1 -102 -30 -142 -17 -22 -31 -45 -31 -51 0 -6 14 -31 30 -55 16 -24 32
-60 35 -80 17 -106 40 -138 91 -128 15 2 28 -1 32 -10 7 -11 20 -8 73 19 60
31 71 33 165 33 l101 0 11 40 c6 22 29 69 50 105 55 91 72 147 72 241 0 131
-52 243 -131 281 -44 21 -110 28 -174 18z"/>
<path d="M1860 3066 c0 -36 -29 -46 -123 -45 -136 3 -190 -24 -233 -116 -17
-36 -24 -68 -24 -115 0 -87 11 -122 71 -221 33 -55 49 -92 46 -106 -2 -13 -4
-23 -3 -23 0 0 23 7 50 15 65 20 112 19 161 -4 43 -19 108 -18 123 3 5 6 14
35 20 63 6 29 23 71 38 92 27 41 25 61 -10 91 -12 9 -16 32 -16 94 0 65 -4 88
-21 116 -12 19 -26 38 -32 42 -8 5 -6 13 6 26 20 22 23 72 5 90 -17 17 -58 15
-58 -2z"/>
<path d="M5390 3021 c-5 -11 -10 -24 -10 -30 0 -14 37 -51 50 -51 15 0 50 38
50 54 0 41 -71 62 -90 27z"/>
<path d="M7174 3029 c-119 -11 -200 -60 -225 -136 -7 -22 -9 -61 -6 -99 6 -57
4 -66 -18 -93 -31 -36 -31 -42 0 -91 13 -21 32 -66 41 -100 16 -54 20 -60 44
-60 14 0 31 -5 36 -10 7 -7 21 -5 44 7 50 24 128 28 174 9 50 -21 56 -20 56 7
0 12 23 62 50 111 79 142 89 260 29 364 -44 77 -106 102 -225 91z"/>
<path d="M4945 2985 c-28 -27 -30 -37 -14 -66 20 -39 77 -41 101 -5 14 20 8
56 -12 76 -26 26 -46 25 -75 -5z"/>
<path d="M5771 2994 c-81 -22 -148 -61 -165 -99 -10 -21 -16 -61 -16 -108 0
-53 -5 -84 -17 -105 -17 -30 -17 -32 7 -74 13 -23 41 -67 62 -97 21 -30 38
-61 38 -69 0 -10 5 -12 18 -7 93 41 135 42 205 6 29 -15 37 -16 37 -5 0 8 25
54 55 103 56 90 66 128 41 153 -11 11 -12 26 -3 74 12 71 -1 132 -40 182 -46
61 -115 75 -222 46z"/>
<path d="M4325 2942 c-47 -22 -94 -74 -97 -105 -1 -12 -3 -51 -4 -87 -1 -36
-5 -79 -9 -96 -6 -26 1 -42 44 -109 28 -42 51 -83 51 -91 0 -22 18 -25 51 -8
55 28 126 20 212 -24 4 -2 7 5 7 15 0 10 7 28 15 41 41 58 85 147 85 172 0 15
-6 33 -14 39 -11 9 -13 29 -10 79 7 89 -12 127 -81 161 -69 34 -192 40 -250
13z"/>
<path d="M6580 2875 c0 -70 -59 -145 -114 -145 -40 0 -31 -25 13 -39 22 -6 51
-25 65 -42 24 -28 31 -45 38 -93 5 -33 21 -19 34 29 15 61 42 96 84 110 44 15
49 32 11 40 -41 9 -76 53 -91 114 -13 54 -40 71 -40 26z"/>
<path d="M3590 2805 l0 -45 160 0 160 0 0 -55 0 -55 -162 0 c-90 0 -168 -4
-174 -8 -12 -8 -84 -116 -84 -126 0 -3 17 -6 38 -6 76 0 216 -52 290 -107 l32
-24 0 100 0 100 78 3 77 3 3 133 3 132 -211 0 -210 0 0 -45z"/>
<path d="M5206 2685 c-18 -59 -53 -95 -92 -95 -38 0 -28 -26 16 -39 44 -13 66
-38 81 -93 10 -39 29 -52 29 -20 0 9 9 36 19 59 16 34 27 44 60 54 23 7 41 16
41 20 0 4 -20 17 -45 28 -41 18 -46 24 -62 80 -10 34 -21 61 -24 61 -3 0 -13
-25 -23 -55z"/>
<path d="M4892 2704 c-28 -19 -29 -60 -2 -74 48 -26 91 30 55 70 -22 24 -24
24 -53 4z"/>
<path d="M740 2690 c-68 -14 -216 -70 -255 -98 -80 -56 -144 -187 -161 -334
l-6 -58 946 0 c899 0 946 1 937 18 -14 25 -51 57 -91 77 -26 14 -57 18 -124
18 l-89 -1 -36 38 c-73 77 -197 79 -279 6 -20 -18 -42 -31 -48 -29 -6 2 -45
-3 -85 -12 -41 -8 -77 -15 -80 -15 -4 0 -9 21 -13 47 -16 120 -117 203 -248
203 -42 0 -48 3 -67 34 -30 47 -104 92 -175 105 -65 12 -74 12 -126 1z"/>
<path d="M8040 2684 c-72 -19 -127 -56 -147 -99 -15 -32 -21 -35 -59 -35 -82
0 -144 -20 -188 -60 -43 -40 -76 -111 -76 -164 0 -26 -2 -28 -27 -21 -58 16
-109 24 -149 25 -27 0 -44 5 -47 15 -4 8 -25 24 -49 37 -85 44 -233 21 -264
-41 -12 -23 -17 -24 -81 -22 -101 3 -158 -14 -209 -64 -24 -23 -44 -46 -44
-51 0 -5 376 -8 951 -6 l951 2 -7 53 c-27 211 -111 342 -247 386 -34 11 -88
30 -118 40 -65 24 -115 25 -190 5z"/>
<path d="M6205 2606 c-19 -28 -9 -58 25 -76 48 -26 93 45 54 84 -23 24 -61 20
-79 -8z"/>
<path d="M3150 2489 c-47 -15 -87 -45 -105 -80 l-16 -29 -112 0 c-120 0 -174
-16 -226 -63 -28 -27 -71 -92 -71 -109 0 -10 121 -12 605 -10 l606 2 -18 32
c-28 49 -83 99 -138 124 -42 20 -66 24 -148 24 l-98 0 -21 35 c-11 20 -39 45
-61 57 -48 24 -145 32 -197 17z"/>
<path d="M5770 2400 c-46 -8 -74 -24 -99 -57 -20 -24 -27 -26 -86 -24 -111 4
-211 -37 -246 -101 -9 -17 16 -18 476 -18 290 0 485 4 485 9 0 14 -58 69 -94
89 -24 13 -55 17 -133 17 -94 0 -104 2 -118 22 -35 49 -114 76 -185 63z"/>
<path d="M4348 2378 c-20 -11 -41 -31 -47 -44 -9 -21 -15 -23 -98 -21 -69 1
-95 -2 -123 -17 -35 -19 -90 -72 -90 -88 0 -4 205 -8 455 -8 250 0 455 2 455
5 0 3 -16 23 -36 45 -47 51 -119 75 -202 65 -56 -6 -58 -6 -81 25 -12 18 -38
38 -57 46 -50 21 -132 18 -176 -8z"/>
<path d="M335 2061 c-59 -21 -102 -44 -131 -69 -45 -39 -94 -116 -115 -180
-20 -64 -21 -88 -21 -487 -1 -368 1 -428 16 -479 31 -106 121 -218 213 -264
102 -52 52 -50 1818 -49 l1640 2 3 49 c2 32 -1 52 -10 57 -7 5 -754 9 -1660 9
-1641 0 -1647 0 -1703 21 -65 24 -134 89 -173 163 l-27 51 0 435 0 435 23 47
c33 67 104 134 169 158 53 20 69 20 4091 20 3812 0 4040 -1 4086 -17 59 -22
134 -93 167 -160 l24 -48 0 -430 0 -430 -35 -60 c-40 -71 -96 -126 -159 -157
l-46 -23 -1480 -5 c-814 -3 -1481 -6 -1482 -8 -2 -1 -3 -27 -3 -57 l0 -56
1478 5 c1347 4 1482 6 1532 21 120 37 207 116 269 245 l36 75 3 429 c3 459 1
479 -50 580 -31 60 -105 133 -167 163 l-56 28 -4100 2 c-3932 2 -4102 2 -4150
-16z"/>
<path d="M438 1855 c-58 -21 -87 -45 -116 -94 l-27 -46 -3 -360 c-4 -413 -1
-441 58 -508 76 -86 -108 -79 1962 -77 1055 0 1838 -3 1838 -8 0 -5 -12 -14
-27 -21 -41 -18 -272 -155 -272 -161 0 -3 78 -48 174 -100 159 -86 194 -110
165 -110 -6 0 -10 -48 -10 -124 0 -137 0 -136 66 -136 69 0 74 9 74 120 0 55
-4 102 -10 105 -6 3 -10 10 -10 16 0 5 16 -1 35 -13 32 -21 35 -27 35 -70 0
-47 1 -48 53 -78 28 -17 93 -51 143 -77 l90 -46 125 66 c160 85 161 86 168
137 l6 43 105 55 c194 100 371 204 368 214 -2 6 -62 43 -133 83 -72 41 -139
80 -150 89 -18 14 138 16 1646 15 1515 0 1670 1 1705 16 53 22 83 51 110 110
24 50 24 52 24 431 0 310 -3 388 -14 416 -20 46 -85 104 -133 117 -26 8 -1242
11 -4023 10 -3311 0 -3991 -3 -4022 -14z m1279 -187 c103 -38 186 -126 230
-248 l20 -54 8 34 c19 91 96 196 181 246 80 47 205 61 304 32 38 -11 162 -89
158 -99 -2 -4 -29 -35 -61 -69 l-59 -63 -27 16 c-114 67 -258 17 -290 -100
-15 -54 -14 -63 15 -121 40 -81 113 -114 204 -92 28 7 61 21 75 31 l24 20 61
-56 c33 -30 62 -55 64 -55 2 0 57 133 121 295 l118 295 102 0 102 0 16 -37
c44 -105 74 -179 170 -416 l105 -258 -120 3 -120 3 -18 45 -18 45 -119 3 -120
3 -22 -53 -21 -53 -115 0 c-63 0 -115 2 -115 5 0 3 7 17 14 33 18 33 12 34
-28 4 -56 -43 -129 -60 -225 -54 -47 3 -106 12 -131 21 -97 36 -185 132 -216
236 -16 52 -18 54 -27 30 -50 -127 -121 -211 -217 -258 -50 -24 -65 -27 -165
-27 -101 0 -115 2 -169 29 -73 36 -128 92 -169 171 -29 56 -32 67 -32 160 0
94 3 106 33 167 87 178 289 256 479 186z m4519 -9 c74 -35 140 -102 180 -184
36 -72 36 -76 32 -167 -5 -109 -25 -158 -99 -241 -147 -166 -439 -153 -575 25
-54 71 -74 134 -74 231 0 71 4 91 31 147 16 36 49 85 72 108 107 111 294 146
433 81z m-5506 -104 l0 -125 105 0 105 0 0 125 0 125 108 0 107 0 -5 -357 -5
-358 -100 2 -100 2 -3 131 -3 130 -104 0 -105 0 0 -129 0 -130 -92 -3 c-51 -2
-99 -2 -105 0 -10 3 -13 84 -13 358 l0 354 105 0 105 0 0 -125z m2945 -11 c55
-74 117 -153 137 -177 l37 -42 1 178 0 177 103 0 102 0 -3 -347 c-1 -192 -4
-354 -7 -360 -3 -9 -31 -13 -93 -13 l-89 0 -100 128 c-54 70 -112 146 -128
169 -17 24 -33 43 -37 43 -3 0 -7 -73 -8 -162 0 -90 -4 -165 -8 -168 -4 -3
-51 -4 -104 -2 l-98 3 0 302 c0 166 3 326 6 355 l7 52 91 -1 91 0 100 -135z
m637 -216 c-2 -224 -6 -355 -13 -359 -5 -3 -49 -5 -97 -5 l-87 1 -3 358 -2
357 102 0 103 0 -3 -352z m895 333 c31 -50 249 -321 257 -321 3 0 6 77 6 170
l0 170 105 0 105 0 0 -354 c0 -195 -3 -356 -7 -358 -5 -2 -50 -2 -100 0 l-93
3 -127 166 -128 165 -3 -166 -2 -166 -108 0 -107 0 0 355 0 355 95 0 c83 0 97
-2 107 -19z m1973 -76 l0 -94 -132 -3 -133 -3 -3 -264 -2 -264 -53 7 c-28 3
-76 6 -104 6 l-53 0 0 260 0 261 -130 -7 -130 -7 0 102 0 101 370 0 370 0 0
-95z m252 -167 l3 -263 138 -3 137 -3 0 -75 c0 -41 4 -73 8 -70 4 2 68 156
142 340 l135 336 105 0 105 0 130 -347 c72 -190 131 -350 133 -354 2 -4 -43
-9 -100 -11 -115 -3 -126 1 -149 66 l-13 36 -116 0 -115 0 -20 -53 c-18 -46
-23 -52 -47 -51 -16 1 -179 2 -363 3 l-336 1 1 223 c1 122 4 282 7 355 l6 132
103 0 104 0 2 -262z m-2787 25 l30 -57 68 -15 c37 -7 67 -17 67 -22 0 -4 -20
-24 -45 -45 -49 -39 -54 -59 -36 -136 5 -22 5 -38 0 -38 -5 0 -33 12 -62 26
l-53 26 -62 -30 c-61 -30 -62 -30 -58 -9 3 12 8 43 11 68 6 45 5 47 -46 93
-28 26 -49 49 -46 52 3 3 35 11 71 17 l66 11 27 58 c14 32 29 58 32 58 3 0 20
-26 36 -57z m230 -612 c61 -35 135 -81 165 -101 30 -21 97 -61 148 -90 78 -43
92 -55 80 -65 -17 -17 -301 -165 -316 -165 -8 0 -12 26 -12 80 0 44 3 80 8 80
4 0 24 -9 45 -20 34 -18 43 -19 73 -8 19 6 34 15 34 19 0 11 -46 41 -135 89
-44 23 -133 72 -199 107 l-118 65 -62 -31 c-33 -17 -110 -58 -170 -91 -60 -33
-111 -58 -114 -56 -2 3 -5 33 -6 68 l-1 62 65 40 c36 22 112 65 169 97 l104
58 66 -36 c36 -20 116 -66 176 -102z m-114 -162 l109 -61 0 -89 0 -88 -32 19
c-53 30 -156 53 -220 47 -31 -3 -82 -17 -114 -31 -31 -14 -58 -26 -61 -26 -2
0 -2 41 -1 91 l3 91 100 54 c55 30 101 54 103 54 2 0 53 -27 113 -61z m-571
-74 l-22 -23 22 -4 c18 -2 23 -11 26 -45 2 -23 0 -44 -4 -47 -8 -5 -177 85
-195 103 -5 5 35 34 90 64 l98 56 3 -41 c3 -30 -2 -46 -18 -63z m180 -100 c0
-47 -4 -85 -9 -85 -5 0 -23 8 -40 18 -28 16 -31 21 -31 69 0 50 2 54 33 67 17
8 35 15 40 15 4 1 7 -37 7 -84z m420 -115 c67 -26 80 -37 80 -62 0 -15 -4 -18
-17 -12 -66 28 -155 54 -192 54 -48 0 -151 -24 -193 -46 -27 -14 -28 -14 -28
9 0 26 53 58 126 76 57 15 161 6 224 -19z m-152 -147 c13 -3 41 4 65 17 37 19
49 21 83 13 l39 -9 -84 -43 -85 -43 -78 38 c-43 21 -78 41 -78 45 0 15 46 15
80 1 19 -8 45 -17 58 -19z"/>
<path d="M1537 1489 c-88 -20 -132 -84 -125 -181 7 -93 60 -148 150 -156 125
-10 208 85 184 212 -17 88 -114 146 -209 125z"/>
<path d="M2934 1319 l-30 -84 59 -3 c33 -2 61 -1 63 1 3 2 -7 33 -22 68 -14
35 -29 73 -33 83 -5 14 -15 -2 -37 -65z"/>
<path d="M5994 1473 c-36 -18 -81 -83 -90 -129 -8 -41 10 -95 44 -136 74 -87
218 -74 277 25 51 89 17 205 -72 243 -42 18 -120 17 -159 -3z"/>
<path d="M8071 1336 c-41 -109 -41 -106 23 -106 31 0 56 2 56 5 0 12 -44 141
-51 148 -4 5 -16 -16 -28 -47z"/>
<path d="M3092 382 c-22 -21 -23 -25 -9 -45 l14 -22 406 -3 c359 -2 407 0 421
14 21 20 20 48 -1 65 -13 11 -91 14 -412 14 l-396 0 -23 -23z"/>
<path d="M5380 390 c-25 -25 -25 -42 -2 -63 16 -15 54 -17 329 -17 293 0 311
1 327 19 23 25 13 59 -21 72 -13 5 -157 9 -319 9 -281 0 -295 -1 -314 -20z"/>
</g>
</svg>
