<?xml version="1.0" standalone="no"?>
<!DOCTYPE svg PUBLIC "-//W3C//DTD SVG 20010904//EN"
 "http://www.w3.org/TR/2001/REC-SVG-20010904/DTD/svg10.dtd">
<svg version="1.0" xmlns="http://www.w3.org/2000/svg"
 width="813.000000pt" height="474.000000pt" viewBox="0 0 813.000000 474.000000"
 preserveAspectRatio="xMidYMid meet">

<g transform="translate(0.000000,474.000000) scale(0.100000,-0.100000)"
fill="#000000" stroke="none">
<path d="M1770 4701 c-25 -9 -62 -25 -82 -35 -31 -15 -43 -16 -73 -6 -21 7
-68 10 -108 8 -167 -9 -292 -122 -328 -297 -12 -55 -11 -71 4 -129 10 -37 31
-89 47 -115 17 -27 30 -49 30 -50 0 -1 -112 -2 -248 -3 -174 0 -264 -5 -298
-14 -153 -41 -269 -152 -315 -301 -18 -58 -19 -111 -19 -1257 l0 -1197 -73
-37 c-93 -48 -138 -86 -187 -158 -72 -106 -80 -148 -80 -409 0 -201 2 -237 20
-294 43 -138 156 -259 294 -314 l71 -28 3585 -3 c2591 -2 3604 1 3652 9 157
26 290 124 361 267 l42 85 3 262 c3 259 3 261 -22 329 -14 37 -35 81 -47 98
-20 27 -21 38 -15 121 4 51 11 121 17 156 33 210 38 290 23 333 -18 52 -53 90
-105 113 l-39 18 0 206 c0 113 -5 235 -10 271 -15 97 -70 201 -146 276 l-64
63 0 518 c0 562 0 565 -56 661 -58 98 -140 167 -240 200 -70 24 -225 31 -656
32 l-286 0 -7 40 c-18 109 -121 237 -232 287 -111 51 -278 40 -376 -23 -85
-56 -154 -154 -181 -259 l-11 -46 -1100 0 -1100 -1 -12 49 c-68 265 -359 443
-657 402 -241 -32 -427 -185 -480 -392 l-13 -52 -102 -3 -101 -3 0 39 c0 21
-7 64 -15 96 l-15 59 39 33 c136 117 103 319 -64 395 -53 24 -164 24 -225 0z
m204 -81 c55 -27 79 -63 84 -125 5 -59 -14 -105 -53 -131 -24 -16 -27 -15 -67
11 -30 20 -58 29 -103 33 -53 4 -71 0 -135 -28 -69 -30 -77 -32 -124 -21 -28
6 -64 20 -81 31 -38 25 -61 25 -75 0 -15 -28 1 -53 49 -75 23 -10 41 -23 41
-30 0 -7 -12 -40 -28 -73 -22 -49 -30 -59 -42 -52 -23 15 -86 12 -100 -5 -7
-8 -16 -15 -21 -15 -14 0 -46 71 -58 131 -42 202 165 376 364 306 38 -14 43
-13 83 10 94 55 196 68 266 33z m1016 -186 c129 -38 248 -132 303 -240 110
-218 -8 -477 -258 -564 -140 -49 -339 -34 -470 35 l-64 34 -75 -34 c-41 -19
-79 -35 -85 -35 -5 0 7 38 29 85 l39 84 -34 57 c-47 77 -61 151 -46 229 17 81
65 169 126 227 59 58 187 124 265 137 72 13 201 5 270 -15z m3169 -101 c106
-51 178 -155 188 -272 6 -66 -14 -142 -55 -204 l-25 -38 17 -72 c9 -40 19 -83
23 -96 5 -21 -2 -18 -72 29 l-78 53 -68 -18 c-45 -11 -82 -15 -111 -10 -109
17 -205 90 -255 193 -23 48 -27 70 -27 138 0 72 4 90 33 148 79 162 270 228
430 149z m-4265 -26 c13 -9 34 -38 47 -64 23 -45 24 -59 24 -228 0 -160 -2
-184 -20 -219 -33 -66 -64 -81 -158 -80 -84 0 -129 15 -198 67 -52 37 -80 -4
-38 -57 24 -31 94 -74 144 -87 31 -9 35 -14 35 -42 0 -23 -12 -44 -40 -76 -36
-39 -42 -42 -59 -30 -10 8 -55 41 -100 74 l-81 60 0 113 c0 87 3 117 15 128 8
9 15 22 15 30 0 25 -39 54 -71 54 -32 0 -63 25 -74 60 -8 26 12 70 37 79 31
11 44 5 67 -35 12 -20 28 -34 40 -34 26 0 51 36 51 73 0 16 15 62 34 103 32
68 37 74 64 74 17 0 59 14 94 31 69 33 127 35 172 6z m-618 -360 c15 -24 39
-50 55 -60 18 -10 29 -24 29 -39 1 -13 2 -68 5 -123 3 -97 2 -101 -23 -128
-30 -31 -159 -75 -297 -101 -108 -21 -130 -28 -203 -67 -75 -40 -168 -135
-202 -205 -44 -92 -43 -88 -146 -699 -14 -82 -28 -152 -30 -155 -3 -2 -3 302
-2 675 l3 680 29 58 c18 35 54 81 92 116 89 84 113 89 417 90 l247 1 26 -43z
m976 -2 c3 -25 18 -69 32 -100 32 -64 32 -63 -35 -198 -52 -104 -59 -134 -33
-144 14 -5 242 78 272 100 7 6 17 6 25 0 6 -6 48 -25 92 -43 70 -28 94 -33
200 -37 137 -6 235 12 342 64 119 58 247 227 260 346 l5 45 752 6 c413 4 908
6 1100 4 l349 -3 14 -55 c30 -122 151 -251 267 -285 56 -17 165 -20 213 -6 29
8 41 3 160 -75 70 -46 131 -84 134 -84 4 0 12 7 19 15 9 11 4 43 -28 160 l-40
147 29 55 c16 30 32 73 35 95 l7 39 451 -3 451 -3 57 -30 c78 -41 152 -130
178 -214 19 -59 20 -92 20 -547 l0 -483 -67 28 c-38 16 -103 43 -145 61 l-78
32 0 112 c0 100 2 112 20 124 33 20 62 90 58 136 -4 31 2 55 22 96 73 148 54
312 -46 400 -79 69 -118 79 -319 81 -192 1 -230 9 -259 50 -9 14 -16 43 -16
72 0 45 -1 48 -22 42 -78 -23 -170 -109 -188 -174 -29 -106 20 -224 110 -261
l28 -11 -21 -52 c-17 -43 -21 -82 -25 -228 -5 -190 6 -258 49 -313 25 -31 80
-62 132 -71 50 -10 50 -36 0 -56 -21 -8 -73 -28 -116 -45 l-78 -32 6 82 c23
295 -170 536 -453 562 -191 18 -387 -75 -422 -201 -12 -42 -11 -48 15 -100 22
-47 25 -60 16 -88 -23 -75 -33 -179 -29 -293 4 -96 9 -127 26 -161 27 -51 63
-81 119 -96 24 -6 43 -17 43 -24 0 -10 -33 -13 -145 -13 l-145 0 0 183 c0 211
-13 281 -65 367 -46 75 -102 125 -184 163 -55 26 -81 32 -157 35 -78 4 -104 0
-174 -22 -46 -14 -91 -26 -101 -26 -54 0 -84 -84 -55 -153 14 -35 14 -41 -4
-82 -43 -101 -52 -283 -17 -367 17 -41 60 -77 99 -85 16 -3 31 -10 35 -16 4
-7 -24 -8 -87 -4 -51 4 -132 7 -179 7 l-86 0 -1 53 c-1 28 -3 75 -5 102 -2 28
0 68 5 90 11 56 -13 85 -75 92 -38 4 -50 1 -76 -21 -18 -15 -37 -42 -43 -61
-12 -35 -24 -44 -35 -25 -10 16 -72 12 -89 -6 -9 -8 -16 -23 -16 -32 0 -10 -9
-25 -20 -35 -11 -9 -20 -28 -20 -41 0 -13 -7 -29 -15 -36 -8 -7 -17 -27 -21
-46 l-6 -34 -547 0 -546 0 60 55 60 55 -29 24 c-32 27 -33 26 22 86 27 30 27
32 3 55 -20 17 -19 18 42 58 34 22 82 57 107 78 25 20 59 40 77 43 17 4 43 18
57 31 44 40 43 66 -5 213 -37 112 -49 139 -78 164 -34 30 -42 31 -108 12 -22
-6 -23 -3 -23 40 0 80 -49 144 -117 153 -32 4 -45 0 -72 -23 l-34 -28 6 -85 6
-85 -40 -60 c-39 -59 -40 -63 -38 -133 3 -59 0 -75 -15 -92 l-19 -21 -22 20
c-29 27 -50 25 -82 -9 -50 -51 -254 -212 -263 -206 -4 3 -26 36 -48 73 -21 37
-63 105 -92 152 -29 47 -71 114 -93 150 -22 36 -58 98 -80 138 -100 180 -175
241 -383 308 -133 42 -144 48 -144 70 0 19 5 24 25 24 34 0 94 26 123 53 48
45 84 148 86 247 l1 60 96 0 96 0 5 -45z m4448 -160 c14 -19 45 -45 70 -57 41
-21 63 -23 242 -28 l196 -5 44 -30 c85 -59 117 -168 83 -281 -22 -73 -26 -77
-67 -66 -25 7 -44 6 -66 -4 l-32 -13 0 55 c0 90 -33 150 -102 185 -31 16 -59
19 -165 19 -70 0 -146 5 -168 11 -115 31 -153 129 -90 226 20 30 25 29 55 -12z
m-5155 -322 l30 -23 -39 -37 -40 -37 -35 41 c-35 39 -68 124 -56 144 6 8 49
-19 140 -88z m248 -15 c-3 -35 -7 -64 -8 -65 0 -2 -17 10 -36 26 l-34 29 34
36 c19 20 38 36 43 36 4 0 5 -28 1 -62z m156 -96 l51 -114 -45 -50 c-25 -28
-45 -55 -45 -61 0 -6 12 -23 27 -39 l26 -27 -64 -136 c-35 -74 -66 -130 -68
-123 -4 11 8 137 29 323 5 44 10 132 11 195 3 127 8 166 19 153 5 -4 31 -59
59 -121z m5075 118 c42 -16 66 -66 66 -138 0 -34 7 -78 14 -97 12 -29 20 -35
45 -35 18 0 35 8 43 19 20 29 56 31 82 5 35 -34 6 -94 -45 -94 -52 0 -75 -45
-41 -84 14 -18 17 -37 14 -116 l-3 -95 -36 -25 c-20 -14 -65 -46 -100 -72
l-63 -47 -30 32 c-23 25 -30 41 -30 73 0 40 1 41 56 64 66 27 137 90 132 117
-5 28 -32 27 -84 -6 -108 -66 -205 -75 -275 -28 -51 34 -61 82 -57 282 4 178
13 219 55 244 23 13 224 14 257 1z m-5675 -62 c7 -35 32 -144 56 -243 75 -307
96 -398 90 -403 -2 -3 -12 10 -22 28 -10 17 -51 89 -91 158 l-73 126 21 29 21
28 -50 58 c-28 32 -51 63 -51 67 0 16 75 214 81 214 4 0 12 -28 18 -62z m-124
-5 c-13 -32 -33 -81 -44 -109 l-19 -51 43 -56 c40 -51 43 -58 33 -84 -12 -31
-10 -35 92 -218 108 -194 172 -315 230 -435 l65 -135 3 -492 4 -493 -81 0 -81
0 0 180 0 180 -135 0 c-74 0 -135 4 -135 9 0 5 11 16 25 25 l25 16 -44 88
c-24 48 -79 161 -121 252 -88 185 -87 182 -61 360 35 240 47 373 34 382 -20
12 -44 10 -57 -6 -6 -8 -21 -83 -32 -167 -11 -85 -26 -196 -34 -246 -24 -147
-23 -150 66 -338 44 -93 83 -175 85 -181 3 -5 -43 -44 -102 -85 -58 -41 -126
-89 -150 -106 -54 -40 -62 -41 -70 -6 -4 15 -42 105 -85 200 -99 219 -129 313
-129 402 0 38 16 162 36 277 19 115 44 265 55 334 38 237 66 308 158 393 71
66 122 91 221 111 41 9 107 24 145 35 39 10 73 19 76 20 4 1 -4 -25 -16 -56z
m839 8 c85 -42 142 -105 231 -261 43 -74 130 -218 193 -319 l115 -185 -42 -35
-42 -36 23 -23 c14 -12 27 -22 29 -22 8 0 115 85 212 168 46 39 86 72 88 72 3
0 67 -66 144 -146 l139 -147 -54 -49 c-224 -202 -317 -247 -484 -235 -138 11
-265 89 -371 228 l-45 59 0 176 0 175 -37 -3 -38 -3 -3 -747 -2 -748 -155 0
-155 0 0 613 0 614 51 104 c28 57 71 150 95 206 24 56 55 125 69 153 l26 51
-27 35 c-16 20 -23 39 -18 42 5 4 26 27 47 51 26 32 34 48 27 57 -11 13 -67
124 -81 162 -11 28 -9 28 65 -7z m1196 -85 c5 -14 10 -52 11 -85 2 -55 0 -62
-24 -82 -15 -11 -27 -29 -27 -39 0 -27 95 -258 116 -282 15 -16 16 -22 6 -26
-8 -2 -42 -26 -77 -53 l-64 -48 -66 71 -66 71 47 29 c39 25 45 33 39 51 -5 12
-10 49 -12 83 -4 58 -2 64 37 125 34 53 40 70 36 99 -5 35 -9 89 -7 103 3 18
42 5 51 -17z m-1460 -64 c0 -26 -32 -277 -36 -281 -9 -9 -14 10 -44 147 l-31
141 22 30 22 30 33 -27 c19 -15 34 -33 34 -40z m-277 32 l27 25 21 -30 21 -30
-23 -124 c-21 -116 -32 -156 -42 -145 -2 3 -21 72 -42 155 -20 82 -40 157 -43
165 -3 8 8 3 25 -13 l30 -27 26 24z m4667 -35 c139 -22 251 -103 312 -226 27
-56 30 -70 25 -123 -3 -33 -2 -58 1 -56 4 2 6 -52 5 -121 l-3 -125 57 -66 c71
-84 93 -132 93 -202 0 -98 -50 -169 -149 -213 -83 -36 -192 -11 -259 60 -60
64 -66 85 -70 239 l-4 142 -39 18 c-125 56 -199 265 -155 434 9 33 11 59 6 64
-6 6 -37 4 -79 -4 -57 -11 -73 -11 -86 0 -24 20 -18 56 15 94 36 40 85 66 160
82 70 16 91 16 170 3z m-2710 -200 c22 -57 39 -113 38 -124 -3 -23 -90 -59
-119 -50 -30 10 -22 30 15 43 48 18 64 39 43 59 -14 14 -19 14 -56 0 -39 -16
-41 -16 -51 3 -14 26 -15 25 30 45 31 14 40 24 40 43 0 26 -2 26 -92 6 -33 -7
-38 13 -10 39 26 24 106 57 115 48 4 -4 26 -54 47 -112z m1852 -29 c59 -17
130 -71 170 -130 55 -82 68 -153 68 -375 l0 -186 -22 7 c-13 4 -61 10 -108 13
l-85 6 -3 58 c-3 54 -1 59 31 90 76 72 47 183 -49 190 -28 2 -29 3 -34 72 l-5
70 -80 0 c-62 1 -90 6 -127 24 -48 23 -108 81 -108 105 0 12 87 45 155 59 40
9 161 7 197 -3z m582 -83 c-17 -119 46 -297 133 -379 27 -25 54 -47 60 -49 7
-3 13 -48 15 -127 l3 -122 -54 0 -53 0 3 103 4 102 -62 5 c-51 4 -68 10 -90
33 -28 27 -28 29 -31 170 -5 189 18 307 59 307 16 0 18 -6 13 -43z m-4260
-219 c15 -10 19 -6 60 77 22 41 40 74 42 73 1 -2 -1 -37 -7 -78 -32 -267 -41
-322 -57 -370 l-18 -53 -22 74 c-12 41 -37 148 -56 239 -19 91 -38 175 -41
185 -4 11 15 -16 41 -60 26 -44 52 -83 58 -87z m1416 15 c99 -104 101 -108 74
-111 -24 -3 -40 9 -116 90 -48 51 -88 94 -88 95 -1 9 14 33 20 33 5 0 54 -48
110 -107z m1981 61 c33 -17 75 -28 115 -32 l64 -5 0 -61 c0 -81 27 -107 79
-74 15 9 23 9 35 -1 32 -26 9 -76 -31 -69 -38 6 -43 -9 -37 -105 6 -104 18
-143 46 -158 42 -22 -15 -120 -81 -140 -58 -17 -105 2 -136 55 -29 49 -31 74
-10 90 9 6 17 24 19 40 2 22 12 32 43 46 43 19 73 53 73 83 0 14 -4 17 -17 12
-149 -65 -225 -55 -254 33 -22 68 5 312 35 312 2 0 28 -12 57 -26z m2214 -44
c7 -11 -108 -146 -138 -162 -15 -7 -24 -5 -43 13 -13 12 -24 26 -24 30 0 8
178 129 190 129 5 0 12 -5 15 -10z m-335 -111 c0 -3 -11 -16 -26 -29 -21 -21
-27 -22 -34 -10 -18 28 -23 80 -9 96 12 14 16 12 41 -18 15 -18 28 -36 28 -39z
m492 37 c207 -78 311 -170 354 -312 9 -32 14 -113 14 -282 l1 -237 -173 0
-173 0 -3 197 c-2 186 -3 197 -22 203 -11 4 -29 3 -40 0 -19 -6 -20 -15 -20
-213 l0 -207 -40 -23 c-63 -36 -87 -88 -120 -267 -17 -87 -30 -170 -30 -186
l0 -29 -91 0 -91 0 9 68 c19 158 1 231 -73 281 -33 23 -34 26 -34 90 0 130
-49 262 -131 355 l-38 43 21 54 c44 113 24 221 -63 336 -22 29 -38 57 -35 62
6 10 115 56 119 50 1 -2 17 -36 36 -75 39 -82 70 -125 78 -106 9 24 30 12 64
-38 19 -27 39 -50 46 -50 6 0 29 22 50 50 38 50 57 60 67 38 3 -8 50 34 117
105 61 64 118 117 125 117 8 0 42 -11 76 -24z m-2822 -71 c-4 -19 -4 -70 2
-190 1 -37 -4 -61 -21 -92 -22 -39 -24 -49 -18 -145 5 -79 34 -431 37 -445 0
-2 14 -3 30 -3 34 0 33 -3 30 99 -1 59 1 72 12 65 27 -17 158 -117 158 -121 0
-7 -59 -83 -94 -120 l-30 -33 -113 0 -113 0 -20 33 c-18 30 -20 50 -20 280 0
236 1 247 19 247 10 0 22 7 25 16 10 27 -13 53 -57 64 -55 14 -107 37 -107 49
0 5 9 11 20 14 21 5 27 31 10 42 -18 11 -10 25 15 25 18 0 25 5 25 20 0 11 -4
20 -10 20 -5 0 -10 7 -10 15 0 9 9 15 25 15 28 0 33 21 10 40 -10 8 -12 17 -7
22 6 6 37 -4 79 -25 l69 -35 0 61 c0 34 6 72 13 85 15 29 48 26 41 -3z m-2281
-380 c29 -25 62 -50 73 -56 18 -9 18 -12 5 -27 -8 -9 -18 -45 -21 -79 -3 -35
-9 -90 -12 -123 l-6 -60 -79 0 -79 0 0 195 0 195 33 0 c25 0 47 -11 86 -45z
m1979 14 l62 -32 0 -259 c0 -203 3 -266 14 -293 l15 -35 -218 0 c-222 0 -242
-3 -253 -40 -11 -33 11 -50 62 -50 l50 0 0 -105 0 -105 -300 0 -300 0 0 125 0
124 58 3 57 3 0 150 0 150 -187 3 -188 2 0 63 c0 72 -10 87 -57 87 l-33 0 0
59 c0 75 -12 86 -97 86 -34 0 -63 2 -63 5 1 3 31 24 68 47 l67 42 590 1 590 0
63 -31z m455 22 c14 -1 10 -8 -18 -32 -19 -17 -48 -58 -64 -91 l-28 -60 -7 74
c-4 40 -9 81 -12 90 -7 23 12 26 129 19z m262 -37 c33 -87 116 -154 190 -154
74 0 163 72 186 151 7 23 19 43 26 46 20 8 132 -16 173 -37 19 -10 45 -29 58
-43 l23 -25 -43 -21 c-78 -37 -187 -163 -228 -260 l-12 -31 -83 0 c-96 0 -139
-15 -185 -64 -28 -30 -36 -33 -59 -25 -34 12 -83 56 -106 97 -19 32 -19 32 4
76 13 24 21 51 18 60 -9 22 -53 20 -77 -4 -22 -22 -50 -84 -50 -111 0 -11 -2
-19 -4 -19 -3 0 -39 25 -80 56 -83 61 -86 69 -59 136 40 102 95 156 197 194
85 32 91 31 111 -22z m905 37 c0 -3 -39 -18 -87 -33 l-87 -26 -32 26 c-18 15
-33 30 -33 33 -1 4 53 7 119 7 66 0 120 -3 120 -7z m287 -132 c69 -74 120
-101 203 -107 90 -6 125 2 194 43 l57 34 34 -37 c20 -20 52 -70 72 -110 30
-60 37 -86 41 -152 l5 -80 -57 0 -56 0 0 54 c0 57 -13 73 -51 61 -16 -5 -19
-17 -19 -61 l0 -54 -217 2 c-209 1 -220 0 -263 -21 -53 -27 -115 -84 -138
-126 -8 -16 -30 -79 -47 -140 l-32 -110 -107 -3 c-58 -1 -106 1 -106 6 0 5 29
80 64 168 35 87 61 162 59 167 -8 14 -60 7 -76 -11 -9 -10 -43 -87 -76 -172
l-59 -155 -182 -3 c-145 -2 -181 0 -177 10 27 63 167 422 177 453 43 134 142
253 260 313 98 49 236 81 352 82 l97 0 48 -51z m-5733 26 c3 -8 1 -15 -4 -15
-6 0 -10 7 -10 15 0 8 2 15 4 15 2 0 6 -7 10 -15z m2191 -58 c22 0 106 4 188
8 l147 8 0 -37 0 -36 -270 0 -270 0 0 36 0 36 83 -8 c45 -5 100 -8 122 -7z
m-2122 -114 c72 -166 200 -452 215 -483 18 -35 26 -38 71 -24 l24 7 -8 -69
c-4 -38 -7 -75 -8 -81 0 -10 -42 -13 -173 -13 -95 0 -179 -3 -188 -6 -14 -6
-16 30 -16 360 l0 366 29 0 c25 0 31 -7 54 -57z m2557 -58 l0 -35 -330 0 -330
0 0 35 0 35 330 0 330 0 0 -35z m368 -197 l-3 -73 -623 -3 c-493 -2 -623 0
-627 10 -2 7 -6 41 -10 76 l-6 62 636 0 636 0 -3 -72z m-2323 23 c-3 -6 -29
-23 -56 -37 -64 -32 -125 -88 -150 -136 -11 -21 -24 -38 -31 -38 -19 0 -88 23
-88 29 1 7 53 46 198 148 92 64 108 72 120 59 8 -8 11 -19 7 -25z m4213 11
c-1 -4 -16 -38 -32 -74 l-28 -66 -82 -4 c-44 -3 -84 -2 -89 2 -4 3 1 28 10 54
18 47 49 79 88 89 34 8 137 8 133 -1z m2529 -8 c58 -28 67 -52 59 -153 -4 -48
-13 -128 -20 -177 -8 -49 -17 -115 -21 -146 l-6 -57 -41 25 c-105 66 -113 68
-370 72 -133 2 -238 8 -238 13 0 31 44 282 56 320 16 51 53 91 99 107 17 6
121 11 238 11 175 1 215 -2 244 -15z m-2968 -49 c16 -22 18 -31 9 -55 -9 -28
-13 -30 -64 -30 -30 0 -54 3 -54 6 0 3 16 24 35 47 19 22 35 44 35 49 0 16 19
8 39 -17z m1940 -84 c62 -32 71 -69 56 -228 l-7 -73 -445 0 -445 0 6 33 c4 17
17 68 31 112 26 87 71 142 130 163 18 6 151 11 333 11 281 1 306 0 341 -18z
m-5467 -31 c2 -5 2 -68 0 -140 l-3 -130 -148 0 -149 0 -60 65 -61 64 19 52
c39 105 26 99 224 99 105 0 176 -4 178 -10z m1758 -145 l0 -125 -475 0 -475 0
0 125 0 125 475 0 475 0 0 -125z m2117 73 c-3 -7 -22 -55 -43 -105 l-38 -93
-535 0 -536 0 -3 105 -2 105 581 0 c461 0 580 -3 576 -12z m-1917 -114 l0 -84
-50 0 -50 0 0 84 c0 51 4 86 11 88 5 2 28 2 50 0 l39 -4 0 -84z m-2392 -64
c11 -18 10 -20 -13 -20 -20 0 -25 5 -25 25 0 28 19 26 38 -5z m6812 -141 c73
-34 138 -101 181 -185 l34 -69 0 -255 0 -255 -30 -60 c-35 -72 -122 -161 -190
-195 l-49 -25 -3660 0 -3661 0 -48 24 c-71 34 -148 115 -187 194 l-33 67 2
252 2 253 30 60 c51 101 141 179 242 211 34 10 690 12 3677 11 l3635 -2 55
-26z"/>
<path d="M2795 4335 c-20 -19 -25 -34 -25 -76 0 -30 -7 -63 -17 -80 -17 -28
-20 -29 -89 -29 -104 0 -104 -1 -104 -170 l0 -139 27 -21 c25 -19 35 -21 93
-15 36 4 70 11 75 15 6 5 19 2 29 -6 15 -10 53 -14 148 -14 121 0 130 1 152
23 25 26 37 98 35 215 -2 89 -20 110 -102 114 l-62 3 3 56 c5 71 -16 115 -63
135 -49 20 -72 18 -100 -11z m85 -60 c9 -11 11 -38 6 -100 l-7 -85 75 0 c54 0
79 -4 90 -16 20 -19 20 -23 -1 -47 -17 -18 -17 -19 0 -28 23 -13 21 -27 -5
-49 -21 -17 -21 -19 -5 -25 21 -9 22 -41 1 -49 -9 -3 -61 -6 -117 -6 -136 1
-137 2 -137 120 0 84 3 97 29 144 16 28 33 75 37 104 7 55 13 62 34 37z m-180
-295 l0 -100 -35 0 -35 0 0 93 c0 52 3 97 7 100 3 4 19 7 35 7 l28 0 0 -100z"/>
<path d="M5168 3907 c-104 -39 -182 -110 -227 -206 -22 -47 -26 -70 -26 -141
1 -71 5 -95 28 -145 30 -64 81 -123 137 -160 76 -49 201 -68 292 -44 42 11 45
10 153 -49 151 -84 158 -77 100 105 l-36 112 22 71 c42 138 12 263 -88 364
-72 72 -130 98 -233 103 -56 2 -97 -1 -122 -10z m217 -88 c56 -26 115 -83 140
-134 11 -24 21 -69 23 -111 4 -61 0 -81 -22 -131 l-27 -59 25 -69 c14 -38 23
-71 21 -73 -2 -3 -30 12 -61 33 l-57 38 -49 -18 c-137 -49 -281 6 -353 136
-26 46 -30 65 -30 129 0 64 4 83 29 128 72 129 237 189 361 131z"/>
<path d="M3608 3703 c12 -2 32 -2 45 0 12 2 2 4 -23 4 -25 0 -35 -2 -22 -4z"/>
<path d="M4038 3703 c29 -2 74 -2 100 0 26 2 2 3 -53 3 -55 0 -76 -1 -47 -3z"/>
<path d="M4228 3703 c7 -3 16 -2 19 1 4 3 -2 6 -13 5 -11 0 -14 -3 -6 -6z"/>
<path d="M3968 3323 c23 -2 61 -2 85 0 23 2 4 4 -43 4 -47 0 -66 -2 -42 -4z"/>
<path d="M4570 3180 c0 -5 5 -10 11 -10 5 0 7 5 4 10 -3 6 -8 10 -11 10 -2 0
-4 -4 -4 -10z"/>
<path d="M2855 3010 c3 -5 8 -10 11 -10 2 0 4 5 4 10 0 6 -5 10 -11 10 -5 0
-7 -4 -4 -10z"/>
<path d="M2723 2983 c15 -2 37 -2 50 0 12 2 0 4 -28 4 -27 0 -38 -2 -22 -4z"/>
<path d="M1430 2112 c-39 -12 -53 -68 -24 -96 35 -36 94 -9 94 43 0 38 -35 64
-70 53z"/>
<path d="M4780 876 c0 -2 8 -10 18 -17 15 -13 16 -12 3 4 -13 16 -21 21 -21
13z"/>
<path d="M3596 757 c3 -10 9 -15 12 -12 3 3 0 11 -7 18 -10 9 -11 8 -5 -6z"/>
<path d="M4900 766 c0 -2 7 -7 16 -10 8 -3 12 -2 9 4 -6 10 -25 14 -25 6z"/>
<path d="M4940 736 c0 -2 8 -10 18 -17 15 -13 16 -12 3 4 -13 16 -21 21 -21
13z"/>
<path d="M4970 696 c0 -2 7 -6 15 -10 8 -3 15 -1 15 4 0 6 -7 10 -15 10 -8 0
-15 -2 -15 -4z"/>
</g>
</svg>
